<svg width="211" height="163" viewBox="0 0 211 163" fill="none" xmlns="http://www.w3.org/2000/svg">
    <style>
        .primary { fill: #1B9BDB; }
        .secondary { fill: #3ED6FF; }
        
        /* Animation for data dots */
        .data-dot {
            fill: #1B9BDB;
            animation: moveData 3s infinite linear;
        }
        
        @keyframes moveData {
            from {offset-distance: 0%;}
            to {offset-distance: 100%;}
        }
        
        /* Cog rotation animations with specific centers */
        .cog-spin-1 {
            transform-origin: 70px 46px;
            animation: spin 12s infinite linear;
        }
        
        .cog-spin-2 {
            transform-origin: 83px 58px;
            animation: spin-reverse 12s infinite linear;
        }
        
        .cog-spin-3 {
            transform-origin: 63.5px 64.5px;
            animation: spin 12s infinite linear;
        }
        
        /* API cog outer ring rotation */
        .api-cog-spin {
            transform-origin: 157.5px 151px;  /* Center point of the API icon */
            animation: spin 12s infinite linear;
        }
        
        @keyframes spin {
            from { transform: rotate(0deg); }
            to { transform: rotate(360deg); }
        }
        
        @keyframes spin-reverse {
            from { transform: rotate(360deg); }
            to { transform: rotate(0deg); }
        }
        
        /* Different delays for each dot */
        .dot1 { animation-delay: 0s; }
        .dot2 { animation-delay: -1s; }
        .dot3 { animation-delay: -2s; }
        .dot4 { animation-delay: -0.5s; }
        .dot5 { animation-delay: -1.5s; }
        .dot6 { animation-delay: -2.5s; }
    </style>

<!-- Define all motion paths (hidden) -->
<path id="dataPath1" d="M52.5 18.5C59.5 22.5 52.5 43 59.5 47" style="display: none;"/>
<path id="dataPath2" d="M20.5 54.5C36 61 45 47 55 51.5" style="display: none;"/>
<path id="dataPath3" d="M36 34.5C48.5 41 47 45.5 57 50" style="display: none;"/>
<path id="dataPath4" d="M87 69L101.5 81" style="display: none;"/>
<path id="dataPath5" d="M139.5 106.5C151 118 161 109.5 168 117" style="display: none;"/>
<path id="dataPath6" d="M136 112.5C148 124.5 138.5 129.5 148 139" style="display: none;"/>

<!-- Animated dots for all paths -->
<circle class="data-dot dot1" r="2">
    <animateMotion dur="3s" repeatCount="indefinite">
        <mpath href="#dataPath1"/>
    </animateMotion>
</circle>

<circle class="data-dot dot2" r="2">
    <animateMotion dur="3s" repeatCount="indefinite">
        <mpath href="#dataPath2"/>
    </animateMotion>
</circle>

<circle class="data-dot dot3" r="2">
    <animateMotion dur="3s" repeatCount="indefinite">
        <mpath href="#dataPath3"/>
    </animateMotion>
</circle>

<circle class="data-dot dot4" r="2">
    <animateMotion dur="3s" repeatCount="indefinite">
        <mpath href="#dataPath4"/>
    </animateMotion>
</circle>

<circle class="data-dot dot5" r="2">
    <animateMotion dur="3s" repeatCount="indefinite">
        <mpath href="#dataPath5"/>
    </animateMotion>
</circle>

<circle class="data-dot dot6" r="2">
    <animateMotion dur="3s" repeatCount="indefinite">
        <mpath href="#dataPath6"/>
    </animateMotion>
</circle>

<g clip-path="url(#clip0_1_140)">
<path class="primary" clip-rule="evenodd" d="M35.7091 2.92865C35.7091 2.72952 35.8081 2.45552 36.1684 2.11946C36.5298 1.78226 37.0966 1.4416 37.8642 1.13874C39.3945 0.534908 41.5635 0.143799 43.9999 0.143799C46.4364 0.143799 48.6054 0.534908 50.1357 1.13874C50.9033 1.4416 51.4701 1.78226 51.8315 2.11946C52.1918 2.45552 52.2908 2.72952 52.2908 2.92865C52.2908 3.12777 52.1918 3.40178 51.8315 3.73783C51.4701 4.07503 50.9033 4.4157 50.1357 4.71856C48.6054 5.3224 46.4364 5.7135 43.9999 5.7135C41.5635 5.7135 39.3945 5.3224 37.8642 4.71856C37.0966 4.4157 36.5298 4.07503 36.1684 3.73783C35.8081 3.40178 35.7091 3.12777 35.7091 2.92865ZM52.3727 5.35769C51.9005 5.68583 51.3408 5.97079 50.7256 6.21354C48.9644 6.90845 46.5862 7.32064 43.9999 7.32064C41.4137 7.32064 39.0355 6.90845 37.2743 6.21354C36.6591 5.97081 36.0995 5.68587 35.6273 5.35774V9.4435C35.6993 9.55265 35.8015 9.67237 35.9439 9.80181C36.3167 10.1408 36.901 10.4831 37.6912 10.787C39.2662 11.3929 41.4964 11.7849 44 11.7849C46.5036 11.7849 48.7339 11.3929 50.3087 10.787C51.0989 10.4831 51.6833 10.1408 52.0562 9.80181C52.1985 9.67238 52.3007 9.55267 52.3727 9.44351V5.35769ZM35.6273 14.4116V11.5621C36.066 11.8357 36.5686 12.0772 37.1142 12.287C38.9159 12.9802 41.3506 13.392 44 13.392C46.6494 13.392 49.0841 12.9802 50.8858 12.287C51.4313 12.0772 51.934 11.8357 52.3727 11.5621V14.4116C52.3727 16.3924 48.6243 18 44 18C39.3757 18 35.6273 16.3924 35.6273 14.4116Z" fill="#1B9BDB"/>
</g>
<g clip-path="url(#clip1_1_140)">
<path class="primary" clip-rule="evenodd" d="M17.7091 20.9287C17.7091 20.7295 17.8081 20.4555 18.1684 20.1195C18.5298 19.7823 19.0966 19.4416 19.8642 19.1387C21.3945 18.5349 23.5635 18.1438 25.9999 18.1438C28.4364 18.1438 30.6054 18.5349 32.1357 19.1387C32.9033 19.4416 33.4701 19.7823 33.8315 20.1195C34.1918 20.4555 34.2908 20.7295 34.2908 20.9287C34.2908 21.1278 34.1918 21.4018 33.8315 21.7378C33.4701 22.075 32.9033 22.4157 32.1357 22.7186C30.6054 23.3224 28.4364 23.7135 25.9999 23.7135C23.5635 23.7135 21.3945 23.3224 19.8642 22.7186C19.0966 22.4157 18.5298 22.075 18.1684 21.7378C17.8081 21.4018 17.7091 21.1278 17.7091 20.9287ZM34.3727 23.3577C33.9005 23.6858 33.3408 23.9708 32.7256 24.2135C30.9644 24.9085 28.5862 25.3206 25.9999 25.3206C23.4137 25.3206 21.0355 24.9085 19.2743 24.2135C18.6591 23.9708 18.0995 23.6859 17.6273 23.3577V27.4435C17.6993 27.5527 17.8015 27.6724 17.9439 27.8018C18.3167 28.1408 18.901 28.4831 19.6912 28.787C21.2662 29.3929 23.4964 29.7849 26 29.7849C28.5036 29.7849 30.7339 29.3929 32.3087 28.787C33.0989 28.4831 33.6833 28.1408 34.0562 27.8018C34.1985 27.6724 34.3007 27.5527 34.3727 27.4435V23.3577ZM17.6273 32.4116V29.5621C18.066 29.8357 18.5686 30.0772 19.1142 30.287C20.9159 30.9802 23.3506 31.392 26 31.392C28.6494 31.392 31.0841 30.9802 32.8858 30.287C33.4313 30.0772 33.934 29.8357 34.3727 29.5621V32.4116C34.3727 34.3924 30.6243 36 26 36C21.3757 36 17.6273 34.3924 17.6273 32.4116Z" fill="#1B9BDB"/>
</g>
<path d="M52.5 18.5C59.5 22.5 52.5 43 59.5 47M20.5 54.5C36 61 45 47 55 51.5M36 34.5C48.5 41 47 45.5 57 50" stroke="#1B9BDB"/>
<g clip-path="url(#clip2_1_140)">
<path class="primary" clip-rule="evenodd" d="M0.70909 39.9287C0.70909 39.7295 0.808115 39.4555 1.16835 39.1195C1.52982 38.7823 2.0966 38.4416 2.86416 38.1387C4.39449 37.5349 6.56351 37.1438 8.99995 37.1438C11.4364 37.1438 13.6054 37.5349 15.1357 38.1387C15.9033 38.4416 16.4701 38.7823 16.8315 39.1195C17.1918 39.4555 17.2908 39.7295 17.2908 39.9287C17.2908 40.1278 17.1918 40.4018 16.8315 40.7378C16.4701 41.075 15.9033 41.4157 15.1357 41.7186C13.6054 42.3224 11.4364 42.7135 8.99995 42.7135C6.56351 42.7135 4.39449 42.3224 2.86416 41.7186C2.0966 41.4157 1.52982 41.075 1.16835 40.7378C0.808115 40.4018 0.70909 40.1278 0.70909 39.9287ZM17.3727 42.3577C16.9005 42.6858 16.3408 42.9708 15.7256 43.2135C13.9644 43.9085 11.5862 44.3206 8.99995 44.3206C6.41367 44.3206 4.03547 43.9085 2.27427 43.2135C1.65912 42.9708 1.09949 42.6859 0.627319 42.3577V46.4435C0.699279 46.5527 0.80149 46.6724 0.943853 46.8018C1.3167 47.1408 1.90103 47.4831 2.69119 47.787C4.26618 48.3929 6.49641 48.7849 9 48.7849C11.5036 48.7849 13.7339 48.3929 15.3087 47.787C16.0989 47.4831 16.6833 47.1408 17.0562 46.8018C17.1985 46.6724 17.3007 46.5527 17.3727 46.4435V42.3577ZM0.627319 51.4116V48.5621C1.06596 48.8357 1.56862 49.0772 2.11416 49.287C3.91589 49.9802 6.35061 50.392 9 50.392C11.6494 50.392 14.0841 49.9802 15.8858 49.287C16.4313 49.0772 16.934 48.8357 17.3727 48.5621V51.4116C17.3727 53.3924 13.6243 55 8.99999 55C4.3757 55 0.627319 53.3924 0.627319 51.4116Z" fill="#1B9BDB"/>
</g>
<g clip-path="url(#clip3_1_140)" class="cog-spin-1">
<path fill-rule="evenodd" clip-rule="evenodd" d="M68.5569 39.6892L68.0938 40.8846L66.5 41.7892L65.2292 41.5954C65.0176 41.5667 64.8023 41.6015 64.6105 41.6955C64.4188 41.7894 64.2593 41.9383 64.1523 42.1231L63.7215 42.8769C63.6111 43.0647 63.5603 43.2815 63.5757 43.4988C63.5911 43.716 63.672 43.9235 63.8077 44.0939L64.6154 45.0954V46.9046L63.8292 47.9061C63.6935 48.0765 63.6126 48.284 63.5972 48.5012C63.5818 48.7185 63.6327 48.9353 63.7431 49.1231L64.1738 49.8769C64.2808 50.0617 64.4403 50.2106 64.6321 50.3045C64.8238 50.3985 65.0392 50.4333 65.2508 50.4046L66.5215 50.2108L68.0938 51.1154L68.5569 52.3108C68.635 52.5132 68.7724 52.6873 68.9511 52.8102C69.1298 52.9332 69.3415 52.9994 69.5585 53H70.4631C70.68 52.9994 70.8917 52.9332 71.0704 52.8102C71.2491 52.6873 71.3865 52.5132 71.4646 52.3108L71.9277 51.1154L73.5 50.2108L74.7708 50.4046C74.9824 50.4333 75.1977 50.3985 75.3895 50.3045C75.5812 50.2106 75.7407 50.0617 75.8477 49.8769L76.2785 49.1231C76.3888 48.9353 76.4397 48.7185 76.4243 48.5012C76.4089 48.284 76.328 48.0765 76.1923 47.9061L75.3846 46.9046V45.0954L76.1708 44.0939C76.3065 43.9235 76.3874 43.716 76.4028 43.4988C76.4182 43.2815 76.3673 43.0647 76.2569 42.8769L75.8261 42.1231C75.7192 41.9383 75.5597 41.7894 75.3679 41.6955C75.1762 41.6015 74.9608 41.5667 74.7492 41.5954L73.4785 41.7892L71.9061 40.8846L71.4431 39.6892C71.365 39.4868 71.2276 39.3128 71.0489 39.1898C70.8701 39.0668 70.6585 39.0006 70.4415 39H69.5585C69.3415 39.0006 69.1298 39.0668 68.9511 39.1898C68.7724 39.3128 68.635 39.4868 68.5569 39.6892ZM70 48.25C71.2426 48.25 72.25 47.2426 72.25 46C72.25 44.7574 71.2426 43.75 70 43.75C68.7574 43.75 67.75 44.7574 67.75 46C67.75 47.2426 68.7574 48.25 70 48.25Z" class="primary"/>
</g>
<g clip-path="url(#clip4_1_140)" class="cog-spin-2">
<path fill-rule="evenodd" clip-rule="evenodd" d="M81.1446 49.8862L80.5492 51.4231L78.5 52.5862L76.8661 52.3369C76.5941 52.3 76.3172 52.3448 76.0707 52.4656C75.8241 52.5864 75.619 52.7778 75.4815 53.0154L74.9277 53.9846C74.7858 54.226 74.7204 54.5048 74.7401 54.7841C74.7599 55.0635 74.8639 55.3302 75.0385 55.5492L76.0769 56.8369V59.1631L75.0661 60.4508C74.8916 60.6698 74.7876 60.9365 74.7678 61.2159C74.7481 61.4952 74.8135 61.774 74.9554 62.0154L75.5092 62.9846C75.6467 63.2222 75.8518 63.4136 76.0983 63.5344C76.3449 63.6552 76.6218 63.7 76.8938 63.6631L78.5277 63.4139L80.5492 64.5769L81.1446 66.1139C81.245 66.3741 81.4217 66.598 81.6514 66.756C81.8812 66.9141 82.1534 66.9992 82.4323 67H83.5954C83.8743 66.9992 84.1465 66.9141 84.3762 66.756C84.606 66.598 84.7827 66.3741 84.8831 66.1139L85.4784 64.5769L87.5 63.4139L89.1339 63.6631C89.4059 63.7 89.6828 63.6552 89.9294 63.5344C90.1758 63.4136 90.3809 63.2222 90.5185 62.9846L91.0724 62.0154C91.2142 61.774 91.2796 61.4952 91.2598 61.2159C91.24 60.9365 91.136 60.6698 90.9615 60.4508L89.9231 59.1631V56.8369L90.9339 55.5492C91.1084 55.3302 91.2124 55.0635 91.2322 54.7841C91.252 54.5048 91.1865 54.226 91.0446 53.9846L90.4907 53.0154C90.3533 52.7778 90.1482 52.5864 89.9016 52.4656C89.6551 52.3448 89.3782 52.3 89.1061 52.3369L87.4724 52.5862L85.4508 51.4231L84.8554 49.8862C84.755 49.6259 84.5783 49.4021 84.3485 49.244C84.1188 49.0859 83.8466 49.0008 83.5677 49H82.4323C82.1534 49.0008 81.8812 49.0859 81.6514 49.244C81.4217 49.4021 81.245 49.6259 81.1446 49.8862ZM83 60.8929C84.5977 60.8929 85.8929 59.5977 85.8929 58C85.8929 56.4023 84.5977 55.1071 83 55.1071C81.4023 55.1071 80.1071 56.4023 80.1071 58C80.1071 59.5977 81.4023 60.8929 83 60.8929Z" class="secondary"/>
</g>
<g clip-path="url(#clip5_1_140)" class="cog-spin-3">
<path fill-rule="evenodd" clip-rule="evenodd" d="M61.3354 55.0338L60.6408 56.8269L58.25 58.1838L56.3438 57.8931C56.0264 57.85 55.7034 57.9023 55.4158 58.0432C55.1281 58.1841 54.8889 58.4074 54.7285 58.6846L54.0823 59.8154C53.9167 60.097 53.8404 60.4223 53.8635 60.7481C53.8866 61.074 54.0079 61.3853 54.2115 61.6408L55.4231 63.1431V65.8569L54.2438 67.3592C54.0402 67.6147 53.9189 67.926 53.8958 68.2519C53.8727 68.5778 53.949 68.903 54.1146 69.1847L54.7608 70.3153C54.9212 70.5925 55.1605 70.8159 55.4481 70.9567C55.7357 71.0977 56.0587 71.15 56.3761 71.1069L58.2823 70.8162L60.6408 72.1731L61.3354 73.9662C61.4525 74.2698 61.6586 74.5309 61.9267 74.7153C62.1947 74.8998 62.5123 74.9991 62.8377 75H64.1946C64.52 74.9991 64.8375 74.8998 65.1056 74.7153C65.3737 74.5309 65.5798 74.2698 65.6969 73.9662L66.3915 72.1731L68.75 70.8162L70.6562 71.1069C70.9736 71.15 71.2965 71.0977 71.5842 70.9567C71.8718 70.8159 72.111 70.5925 72.2716 70.3153L72.9177 69.1847C73.0832 68.903 73.1596 68.5778 73.1365 68.2519C73.1134 67.926 72.992 67.6147 72.7884 67.3592L71.5769 65.8569V63.1431L72.7562 61.6408C72.9598 61.3853 73.0811 61.074 73.1042 60.7481C73.1273 60.4223 73.051 60.097 72.8853 59.8154L72.2392 58.6846C72.0788 58.4074 71.8396 58.1841 71.5518 58.0432C71.2643 57.9023 70.9412 57.85 70.6238 57.8931L68.7178 58.1838L66.3592 56.8269L65.6646 55.0338C65.5475 54.7303 65.3414 54.4691 65.0733 54.2847C64.8052 54.1002 64.4877 54.001 64.1623 54H62.8377C62.5123 54.001 62.1947 54.1002 61.9267 54.2847C61.6586 54.4691 61.4525 54.7303 61.3354 55.0338ZM63.5 67.875C65.364 67.875 66.875 66.364 66.875 64.5C66.875 62.636 65.364 61.125 63.5 61.125C61.636 61.125 60.125 62.636 60.125 64.5C60.125 66.364 61.636 67.875 63.5 67.875Z" class="primary"/>
</g>
<!-- Both paths to BI and API -->
<path d="M139.5 106.5C151 118 161 109.5 168 117M136 112.5C148 124.5 138.5 129.5 148 139" stroke="#1B9BDB"/>
<path d="M175.6 111.8V103.267M179.867 111.8V106.822M184.133 111.8V100.2M188.4 111.8V103.267" stroke="#1B9BDB" stroke-width="2" stroke-linecap="round" stroke-linejoin="round"/>
<path d="M203 99.6C206.535 99.6 209.4 102.465 209.4 106C209.4 109.535 206.535 112.4 203 112.4C199.465 112.4 196.6 109.535 196.6 106C196.6 102.465 199.465 99.6 203 99.6ZM203 99.6L203 106M203 106L198.6 110.4M203 106L198.6 101.6" stroke="#1B9BDB" stroke-width="2" stroke-linecap="round" stroke-linejoin="round"/>
<path d="M175.333 118.333H188.667M179.333 131.667L182 130.333M182 130.333V128.333M182 130.333L184.667 131.667M179 124.333L181.1 122.58C181.267 122.44 181.487 122.48 181.6 122.667L182.4 124C182.513 124.187 182.733 124.22 182.9 124.087L185 122.333M177.933 128.333H186.06C187.327 128.333 187.993 127.667 187.993 126.4V118.333H175.993V126.4C176 127.667 176.667 128.333 177.933 128.333Z" stroke="#1B9BDB" stroke-width="1.5" stroke-miterlimit="10" stroke-linecap="round" stroke-linejoin="round"/>
<path d="M197 126.57H199.785M197 126.57L199.746 126.569C199.759 126.569 199.772 126.569 199.785 126.57M197 126.57L197 129.16C197 129.513 197.358 129.8 197.8 129.8H199.747C200.188 129.8 200.547 129.513 200.547 129.16V127.209C200.547 126.866 200.209 126.586 199.785 126.57M197 126.57L197 123.339M199.785 126.57H203.517C203.959 126.57 204.317 126.283 204.317 125.93V123.979C204.317 123.625 203.959 123.339 203.517 123.339M197 123.339H203.517M197 123.339L197 120.84C197 120.487 197.358 120.2 197.8 120.2L208.2 120.2C208.642 120.2 209 120.487 209 120.84V122.699C209 123.052 208.642 123.339 208.2 123.339L203.517 123.339M197 131.4V118.6" stroke="#1B9BDB" stroke-width="2" stroke-linecap="round" stroke-linejoin="round"/>
<!-- Cog outer wheel -->
<g class="url(#clip6_1_140)">
<path d="M167.116 153.54L166.288 153.062C166.427 152.37 166.497 151.678 166.497 151C166.497 150.312 166.428 149.619 166.291 148.936L167.116 148.46C167.371 148.313 167.553 148.075 167.63 147.79C167.706 147.505 167.667 147.208 167.519 146.952L165.265 143.048C165.118 142.792 164.88 142.61 164.595 142.533C164.31 142.457 164.013 142.496 163.757 142.644L162.932 143.12C161.89 142.203 160.664 141.494 159.358 141.052V140.104C159.358 139.495 158.863 139 158.254 139H153.746C153.137 139 152.642 139.495 152.642 140.104V141.052C151.343 141.492 150.118 142.202 149.072 143.123L148.243 142.644C147.987 142.496 147.69 142.457 147.405 142.533C147.12 142.61 146.882 142.792 146.735 143.048L144.48 146.952C144.333 147.208 144.294 147.505 144.37 147.79C144.446 148.075 144.629 148.313 144.884 148.46L145.712 148.938C145.573 149.63 145.503 150.322 145.503 151C145.503 151.688 145.572 152.381 145.709 153.064L144.884 153.54C144.357 153.844 144.176 154.521 144.48 155.048L146.735 158.952C147.039 159.479 147.715 159.661 148.243 159.356L149.068 158.88C150.11 159.797 151.336 160.506 152.642 160.948V161.896C152.642 162.505 153.137 163 153.746 163H158.254C158.863 163 159.358 162.505 159.358 161.896V160.948C160.657 160.508 161.882 159.798 162.928 158.877L163.757 159.356C164.284 159.661 164.961 159.479 165.265 158.952L167.52 155.048C167.824 154.521 167.643 153.844 167.116 153.54ZM166.909 154.695L164.655 158.6C164.545 158.791 164.3 158.856 164.11 158.746L163.058 158.139C162.924 158.062 162.756 158.081 162.643 158.185C161.567 159.18 160.274 159.93 158.902 160.355C158.754 160.401 158.654 160.537 158.654 160.692V161.896C158.654 162.116 158.475 162.295 158.254 162.295H153.746C153.525 162.295 153.346 162.116 153.346 161.896V160.692C153.346 160.537 153.246 160.401 153.098 160.355C151.718 159.928 150.423 159.178 149.353 158.188C149.286 158.127 149.2 158.095 149.113 158.095C149.053 158.095 148.992 158.11 148.937 158.142L147.89 158.746C147.7 158.856 147.455 158.791 147.345 158.6L145.091 154.695C144.981 154.505 145.046 154.26 145.237 154.15L146.283 153.546C146.416 153.469 146.484 153.314 146.45 153.163C146.289 152.449 146.207 151.721 146.207 151C146.207 150.291 146.29 149.564 146.454 148.838C146.488 148.688 146.42 148.533 146.286 148.456L145.237 147.85C145.144 147.797 145.078 147.711 145.051 147.608C145.023 147.505 145.037 147.397 145.091 147.305L147.345 143.4C147.398 143.308 147.484 143.241 147.587 143.214C147.69 143.186 147.798 143.2 147.89 143.254L148.942 143.861C149.076 143.938 149.244 143.919 149.357 143.814C150.433 142.82 151.726 142.07 153.098 141.645C153.246 141.599 153.346 141.463 153.346 141.308V140.104C153.346 139.884 153.526 139.705 153.746 139.705H158.254C158.475 139.705 158.654 139.884 158.654 140.104V141.308C158.654 141.463 158.754 141.599 158.902 141.645C160.282 142.072 161.577 142.822 162.647 143.812C162.761 143.916 162.929 143.935 163.063 143.858L164.11 143.254C164.202 143.2 164.31 143.186 164.413 143.214C164.516 143.241 164.602 143.308 164.655 143.4L166.909 147.305C166.963 147.397 166.977 147.505 166.949 147.608C166.922 147.711 166.856 147.797 166.763 147.85L165.717 148.454C165.584 148.531 165.516 148.686 165.55 148.836C165.711 149.551 165.793 150.279 165.793 151C165.793 151.709 165.71 152.436 165.546 153.161C165.512 153.312 165.58 153.467 165.714 153.544L166.763 154.15C166.954 154.26 167.019 154.505 166.909 154.695Z" fill="#1B9BDB"/>
</g>
<!-- Cog rest -->
<g clip-path="url(#clip10_1_140)">
<path d="M156 143.885C152.076 143.885 148.885 147.077 148.885 151C148.885 154.923 152.076 158.115 156 158.115C159.924 158.115 163.115 154.923 163.115 151C163.115 147.077 159.924 143.885 156 143.885ZM156 157.411C152.465 157.411 149.589 154.535 149.589 151C149.589 147.465 152.465 144.589 156 144.589C159.535 144.589 162.411 147.465 162.411 151C162.411 154.535 159.535 157.411 156 157.411Z" fill="#1B9BDB"/>
<path d="M157.315 149.145H156C155.805 149.145 155.648 149.303 155.648 149.497V152.503C155.648 152.697 155.805 152.855 156 152.855C156.195 152.855 156.352 152.697 156.352 152.503V151.728H157.315C158.027 151.728 158.607 151.149 158.607 150.436C158.607 149.724 158.027 149.145 157.315 149.145ZM157.315 151.023H156.352V149.849H157.315C157.639 149.849 157.902 150.113 157.902 150.436C157.902 150.76 157.639 151.023 157.315 151.023Z" fill="#1B9BDB"/>
<path d="M154.075 149.373C154.024 149.236 153.892 149.145 153.746 149.145H153.37C153.223 149.145 153.092 149.236 153.04 149.373L151.913 152.379C151.845 152.561 151.937 152.764 152.119 152.833C152.301 152.901 152.504 152.809 152.573 152.627L152.769 152.104H154.347L154.543 152.627C154.596 152.768 154.73 152.855 154.873 152.855C154.914 152.855 154.956 152.848 154.996 152.833C155.179 152.764 155.271 152.561 155.203 152.379L154.075 149.373ZM153.033 151.399L153.558 149.999L154.083 151.399H153.033Z" fill="#1B9BDB"/>
<path d="M159.382 149.145C159.187 149.145 159.029 149.303 159.029 149.497V152.503C159.029 152.697 159.187 152.855 159.382 152.855C159.576 152.855 159.734 152.697 159.734 152.503V149.497C159.734 149.303 159.576 149.145 159.382 149.145Z" fill="#1B9BDB"/>
<path d="M158.52 143.1C158.764 143.178 159.008 143.269 159.244 143.369C159.289 143.388 159.336 143.397 159.382 143.397C159.519 143.397 159.649 143.317 159.706 143.183C159.782 143.004 159.699 142.797 159.52 142.721C159.264 142.612 158.999 142.514 158.734 142.429C158.548 142.37 158.35 142.472 158.291 142.658C158.232 142.843 158.335 143.041 158.52 143.1Z" fill="#1B9BDB"/>
<path d="M148.718 154.964C148.625 154.793 148.411 154.73 148.24 154.824C148.069 154.917 148.006 155.131 148.099 155.302C148.246 155.569 148.407 155.833 148.58 156.085C148.649 156.184 148.759 156.238 148.871 156.238C148.94 156.238 149.009 156.218 149.07 156.176C149.23 156.066 149.271 155.846 149.161 155.686C149.002 155.454 148.853 155.211 148.718 154.964Z" fill="#1B9BDB"/>
<path d="M155.279 159.259C153.391 159.096 151.599 158.278 150.234 156.955C150.094 156.82 149.871 156.824 149.736 156.963C149.6 157.103 149.604 157.326 149.744 157.461C151.225 158.897 153.17 159.784 155.218 159.961C155.228 159.961 155.239 159.962 155.249 159.962C155.43 159.962 155.583 159.823 155.599 159.64C155.616 159.446 155.472 159.275 155.279 159.259Z" fill="#1B9BDB"/>
<path d="M161.069 143.569C160.908 143.459 160.689 143.501 160.579 143.661C160.47 143.822 160.511 144.041 160.671 144.151C162.308 145.269 163.492 146.934 164.005 148.837C164.047 148.994 164.189 149.098 164.345 149.098C164.375 149.098 164.406 149.094 164.436 149.085C164.624 149.035 164.736 148.842 164.685 148.654C164.128 146.588 162.844 144.782 161.069 143.569Z" fill="#1B9BDB"/>
</g>
<g clip-path="url(#clip7_1_140)">
<!-- Front database in data lakehouse -->
<path fill-rule="evenodd" clip-rule="evenodd" d="M110.788 84.254C110.788 84.0328 110.898 83.7283 111.298 83.3549C111.7 82.9803 112.33 82.6018 113.182 82.2652C114.883 81.5943 117.293 81.1598 120 81.1598C122.707 81.1598 125.117 81.5943 126.817 82.2652C127.67 82.6018 128.3 82.9803 128.702 83.3549C129.102 83.7283 129.212 84.0328 129.212 84.254C129.212 84.4753 129.102 84.7797 128.702 85.1531C128.3 85.5278 127.67 85.9063 126.817 86.2428C125.117 86.9138 122.707 87.3483 120 87.3483C117.293 87.3483 114.883 86.9138 113.182 86.2428C112.33 85.9063 111.7 85.5278 111.298 85.1531C110.898 84.7797 110.788 84.4753 110.788 84.254ZM129.303 86.953C128.778 87.3176 128.156 87.6342 127.473 87.9039C125.516 88.676 122.874 89.134 120 89.134C117.126 89.134 114.484 88.676 112.527 87.9039C111.843 87.6342 111.222 87.3176 110.697 86.953V91.4928C110.777 91.614 110.891 91.7471 111.049 91.8909C111.463 92.2676 112.112 92.6478 112.99 92.9856C114.74 93.6588 117.218 94.0943 120 94.0943C122.782 94.0943 125.26 93.6588 127.01 92.9856C127.888 92.6478 128.537 92.2676 128.951 91.8909C129.109 91.7471 129.223 91.6141 129.303 91.4928V86.953ZM110.697 97.0129V93.8468C111.184 94.1508 111.743 94.419 112.349 94.6522C114.351 95.4224 117.056 95.88 120 95.88C122.944 95.88 125.649 95.4224 127.651 94.6522C128.257 94.419 128.816 94.1508 129.303 93.8468V97.0129C129.303 99.2137 125.138 101 120 101C114.862 101 110.697 99.2137 110.697 97.0129Z" class="primary"/>
</g>
<g opacity="0.5" clip-path="url(#clip8_1_140)" filter="url(#filter0_f_1_140)">
<!-- Back database in data lakehouse -->
<path fill-rule="evenodd" clip-rule="evenodd" d="M121.63 80.6032C121.63 80.4262 121.718 80.1827 122.039 79.884C122.36 79.5842 122.864 79.2814 123.546 79.0122C124.906 78.4755 126.834 78.1278 129 78.1278C131.166 78.1278 133.094 78.4755 134.454 79.0122C135.136 79.2814 135.64 79.5842 135.961 79.884C136.282 80.1827 136.37 80.4262 136.37 80.6032C136.37 80.7802 136.282 81.0238 135.961 81.3225C135.64 81.6222 135.136 81.9251 134.454 82.1943C133.094 82.731 131.166 83.0787 129 83.0787C126.834 83.0787 124.906 82.731 123.546 82.1943C122.864 81.9251 122.36 81.6222 122.039 81.3225C121.718 81.0238 121.63 80.7802 121.63 80.6032ZM136.442 82.7624C136.023 83.0541 135.525 83.3074 134.978 83.5231C133.413 84.1408 131.299 84.5072 129 84.5072C126.701 84.5072 124.587 84.1408 123.022 83.5231C122.475 83.3074 121.977 83.0541 121.558 82.7624V86.3942C121.622 86.4912 121.712 86.5976 121.839 86.7127C122.17 87.0141 122.69 87.3183 123.392 87.5885C124.792 88.127 126.775 88.4754 129 88.4754C131.225 88.4754 133.208 88.127 134.608 87.5885C135.31 87.3183 135.83 87.0141 136.161 86.7127C136.288 86.5977 136.378 86.4912 136.442 86.3942V82.7624ZM121.558 90.8103V88.2774C121.948 88.5206 122.394 88.7352 122.879 88.9218C124.481 89.5379 126.645 89.904 129 89.904C131.355 89.904 133.519 89.5379 135.121 88.9218C135.606 88.7352 136.052 88.5206 136.442 88.2774V90.8103C136.442 92.571 133.111 94 129 94C124.89 94 121.558 92.571 121.558 90.8103Z" class="secondary"/>
</g>
<g opacity="0.5" clip-path="url(#clip9_1_140)" filter="url(#filter1_f_1_140)">
<!-- Back database in data lakehouse -->
<path fill-rule="evenodd" clip-rule="evenodd" d="M105.63 80.6032C105.63 80.4262 105.718 80.1827 106.039 79.884C106.36 79.5842 106.864 79.2814 107.546 79.0122C108.906 78.4755 110.834 78.1278 113 78.1278C115.166 78.1278 117.094 78.4755 118.454 79.0122C119.136 79.2814 119.64 79.5842 119.961 79.884C120.282 80.1827 120.37 80.4262 120.37 80.6032C120.37 80.7802 120.282 81.0238 119.961 81.3225C119.64 81.6222 119.136 81.9251 118.454 82.1943C117.094 82.731 115.166 83.0787 113 83.0787C110.834 83.0787 108.906 82.731 107.546 82.1943C106.864 81.9251 106.36 81.6222 106.039 81.3225C105.718 81.0238 105.63 80.7802 105.63 80.6032ZM120.442 82.7624C120.023 83.0541 119.525 83.3074 118.978 83.5231C117.413 84.1408 115.299 84.5072 113 84.5072C110.701 84.5072 108.587 84.1408 107.022 83.5231C106.475 83.3074 105.977 83.0541 105.558 82.7624V86.3942C105.622 86.4912 105.712 86.5976 105.839 86.7127C106.17 87.0141 106.69 87.3183 107.392 87.5885C108.792 88.127 110.775 88.4754 113 88.4754C115.225 88.4754 117.208 88.127 118.608 87.5885C119.31 87.3183 119.83 87.0141 120.161 86.7127C120.288 86.5977 120.378 86.4912 120.442 86.3942V82.7624ZM105.558 90.8103V88.2774C105.948 88.5206 106.394 88.7352 106.879 88.9218C108.481 89.5379 110.645 89.904 113 89.904C115.355 89.904 117.519 89.5379 119.121 88.9218C119.606 88.7352 120.052 88.5206 120.442 88.2774V90.8103C120.442 92.571 117.111 94 120 94C124.862 94 129.303 92.571 129.303 90.8103Z" class="secondary"/>
</g>
<!-- Path between Waves in data lakehouse-->
<path d="M105 104.75C105 104.75 108.875 104.75 108.875 101C108.875 101 108.875 106 112.75 106C112.75 106 116.625 106 116.625 101C116.625 101 116.625 106 120.5 106C120.5 106 123.406 106 124.375 101C124.375 101 125.344 106 128.25 106C131.156 106 132.125 101 132.125 101C132.125 101 132.125 104.75 136 104.75" class="primary"/>
<!-- Path between Transform and data lakehouse-->
<path d="M87 69L101.5 81" stroke="#1B9BDB"/>
<defs>
<filter id="filter0_f_1_140" x="120.5" y="77.5" width="17" height="17" filterUnits="userSpaceOnUse" color-interpolation-filters="sRGB">
<feFlood flood-opacity="0" result="BackgroundImageFix"/>
<feBlend mode="normal" in="SourceGraphic" in2="BackgroundImageFix" result="shape"/>
<feGaussianBlur stdDeviation="0.25" result="effect1_foregroundBlur_1_140"/>
</filter>
<filter id="filter1_f_1_140" x="104.5" y="77.5" width="17" height="17" filterUnits="userSpaceOnUse" color-interpolation-filters="sRGB">
<feFlood flood-opacity="0" result="BackgroundImageFix"/>
<feBlend mode="normal" in="SourceGraphic" in2="BackgroundImageFix" result="shape"/>
<feGaussianBlur stdDeviation="0.25" result="effect1_foregroundBlur_1_140"/>
</filter>
<clipPath id="clip0_1_140">
<rect width="18" height="18" fill="white" transform="translate(35)"/>
</clipPath>
<clipPath id="clip1_1_140">
<rect width="18" height="18" fill="white" transform="translate(17 18)"/>
</clipPath>
<clipPath id="clip2_1_140">
<rect width="18" height="18" fill="white" transform="translate(0 37)"/>
</clipPath>
<clipPath id="clip3_1_140">
<rect width="14" height="14" fill="white" transform="translate(63 39)"/>
</clipPath>
<clipPath id="clip4_1_140">
<rect width="18" height="18" fill="white" transform="translate(74 49)"/>
</clipPath>
<clipPath id="clip5_1_140">
<rect width="21" height="21" fill="white" transform="translate(53 54)"/>
</clipPath>
<clipPath id="clip6_1_140">
<rect width="24" height="24" fill="white" transform="translate(144 139)"/>
</clipPath>
<clipPath id="clip10_1_140">
<rect width="24" height="24" fill="white" transform="translate(144 139)"/>
</clipPath>
<clipPath id="clip7_1_140">
<rect width="20" height="20" fill="white" transform="translate(110 81)"/>
</clipPath>
<clipPath id="clip8_1_140">
<rect width="16" height="16" fill="white" transform="translate(121 78)"/>
</clipPath>
<clipPath id="clip9_1_140">
<rect width="16" height="16" fill="white" transform="translate(105 78)"/>
</clipPath>
</defs>
</svg>
